<svg width="51" height="51" viewBox="0 0 51 51" fill="none" xmlns="http://www.w3.org/2000/svg">
<path d="M42.1369 37.1954C44.686 33.6581 46.0385 29.4441 46.0385 25.0223C46.0904 19.3521 43.9578 14.0458 40.0039 10.0922C35.9982 6.03417 30.7441 3.84937 25.0738 3.84937C13.525 3.84937 4.05713 13.3173 4.05713 24.866C4.05713 36.4147 13.473 45.8826 25.0738 45.8826C27.1026 45.8826 29.0273 45.6225 30.8481 45.0502L30.9523 44.9983L30.5361 42.9177L30.38 42.9695C28.6114 43.4899 26.7905 43.802 24.97 43.802C14.5657 43.802 6.08623 35.3224 6.08623 24.9182C6.08623 14.514 14.5658 6.03445 24.97 6.03445C35.3742 6.03445 43.8538 14.514 43.8538 24.9182C43.8538 28.924 42.6051 32.7733 40.2123 36.1028L40.212 36.207L42.0329 37.2473L42.1369 37.1954Z" fill="#101828"/>
<path d="M42.8652 7.38731C38.1312 2.60107 31.7847 0 25.0739 0C22.7331 0 20.496 0.312072 18.3634 0.936199L18.2592 0.988089L18.6235 2.91279L18.7796 2.8609C20.8602 2.28864 22.9932 1.97658 25.0743 1.97658C37.8196 1.97658 48.2239 12.3288 48.2239 25.1261C48.2235 37.9243 37.8196 48.2236 25.0743 48.2236C12.3291 48.1717 1.97686 37.7673 1.97686 25.022C1.97686 20.1842 3.43346 15.6062 6.2428 11.6526L6.34694 11.5484L4.63024 10.5599L4.57835 10.6641C1.56073 14.8777 0 19.8719 0 25.074C0 38.8596 11.2366 50.0963 25.0223 50.0963C38.86 50.0963 50.1486 38.8596 50.1486 25.074C50.1486 18.4152 47.5997 12.1207 42.8658 7.38671L42.8652 7.38731Z" fill="#101828"/>
<path d="M21.0162 17.7395H20.2361C16.7506 17.7395 13.9413 20.5485 13.9413 24.0343C13.9413 27.4678 17.0105 29.7568 17.1146 29.8606C17.2706 29.9647 17.3748 30.1208 17.3748 30.2249V34.3867C17.3748 35.5831 18.311 36.5197 19.5077 36.6234C19.7679 36.8836 20.0281 37.0397 20.3402 37.1438H20.8605C21.1207 37.0397 21.3809 36.8836 21.5369 36.7276C22.7333 36.7276 23.6699 35.6872 23.6699 34.4908V30.329C23.6699 30.2249 23.8259 30.0689 24.0342 29.9647C24.1902 29.8606 27.2075 27.5716 27.2075 24.1384C27.3625 20.5489 24.4494 17.7395 21.0162 17.7395V17.7395ZM18.2069 28.2998C18.2069 28.2998 15.8137 26.4271 15.8137 23.9301C15.8137 21.4332 17.7906 19.5081 20.2357 19.5081H21.0159C23.5128 19.5081 25.4379 21.485 25.4379 23.9301C25.4379 26.3233 23.3049 28.0396 23.0447 28.1961C22.8887 28.3002 21.9521 28.9762 21.9521 29.9647L21.9525 31.3172H19.1953V30.0166C19.2472 29.0281 18.2068 28.2999 18.2068 28.2999L18.2069 28.2998ZM22.0566 33.2941V34.3867C22.0566 34.5427 21.9005 34.751 21.6922 34.751H19.6634C19.5074 34.751 19.2991 34.595 19.2991 34.3867V33.2941H22.0566Z" fill="#101828"/>
<path d="M20.6001 25.5428L21.6927 26.1151C21.7969 26.1151 21.8488 26.2192 21.9529 26.2192C22.0571 26.2192 22.2131 26.2192 22.265 26.1151C22.421 26.0109 22.5252 25.803 22.5252 25.5947L22.265 24.3461L23.2012 23.5137C23.3572 23.3576 23.3572 23.2016 23.3572 22.9414C23.2531 22.7854 23.097 22.6293 22.941 22.6293L21.6924 22.4737L21.1201 21.381C21.016 21.225 20.86 21.1208 20.5998 21.1208C20.3396 21.1208 20.1836 21.225 20.0794 21.381L19.5075 22.4737L18.2589 22.6297C18.1029 22.6297 17.8427 22.7857 17.8427 22.9418C17.7386 23.0978 17.8427 23.358 17.9987 23.514L18.9349 24.3465L18.6748 25.5951C18.6748 25.7511 18.7789 26.0113 18.9349 26.1154C19.091 26.2196 19.3512 26.2715 19.5072 26.2196L20.6001 25.5428Z" fill="#101828"/>
<path d="M32.6171 16.3867H29.8599C29.4956 16.3867 29.1316 16.751 29.1316 17.115L29.0275 19.924C29.0275 20.1319 29.0794 20.3402 29.2354 20.4962C29.3915 20.6523 29.5475 20.7041 29.7558 20.7041C29.9637 20.7041 30.1201 20.6 30.328 20.4962C30.4841 20.3402 30.536 20.1841 30.536 19.9759L30.5879 18.8314L30.8999 19.1435C32.5648 20.8083 32.5648 23.4094 30.8999 25.0739L29.3919 26.635C27.363 28.6638 27.1551 32.045 29.0276 34.2821C28.5072 35.2183 28.7155 36.4151 29.4438 37.1434C30.38 38.0796 31.9407 38.0796 32.9292 37.1434C33.9177 36.2072 33.8654 34.6465 32.9292 33.658C32.2009 32.9297 31.0564 32.7218 30.1202 33.1899C28.8197 31.525 28.9758 29.1322 30.4323 27.6757L31.8889 26.2191C34.1256 23.9824 34.0738 20.3928 31.8889 18.208L31.681 18.0001H32.6172C32.8251 18.0001 32.9815 17.8959 33.1375 17.7921C33.2936 17.6361 33.3455 17.4801 33.3455 17.2718C33.3455 17.0639 33.2413 16.9075 33.1375 16.7514C32.9811 16.4909 32.7732 16.3867 32.6172 16.3867L32.6171 16.3867ZM31.9407 36.0508C31.5763 36.4151 30.9522 36.4151 30.5882 36.0508C30.2239 35.6865 30.2239 35.0623 30.5882 34.6983C30.9525 34.334 31.5767 34.334 31.9407 34.6983C32.3569 35.1142 32.305 35.6865 31.9407 36.0508Z" fill="#101828"/>
<path d="M37.0908 28.2478C37.0908 28.0399 37.0389 27.8835 36.8828 27.7275C36.7787 27.6233 36.5708 27.5195 36.3625 27.5195C36.1546 27.5195 35.9982 27.5714 35.8421 27.7275L34.9578 28.6118L34.0735 27.7275C33.9693 27.6233 33.7614 27.5195 33.5531 27.5195C33.3452 27.5195 33.1888 27.5714 33.0328 27.7275C32.9286 27.8316 32.8248 28.0395 32.8248 28.2478C32.8248 28.4557 32.8767 28.6121 33.085 28.7682L33.9693 29.6006L33.085 30.433C32.9809 30.5372 32.8771 30.7451 32.8248 30.9534C32.8248 31.1613 32.8767 31.3177 33.0328 31.4738C33.1369 31.5779 33.3448 31.6817 33.5531 31.6817C33.761 31.6817 33.9174 31.6298 34.0735 31.4738L35.062 30.5894L35.9463 31.4738C36.0504 31.5779 36.2584 31.6817 36.4667 31.6817C36.6746 31.6817 36.831 31.6298 36.987 31.4738C37.2472 31.1617 37.2472 30.6936 36.987 30.4334L36.1027 29.601L36.987 28.7686C37.0386 28.6118 37.0908 28.508 37.0908 28.2479L37.0908 28.2478Z" fill="#101828"/>
<path d="M23.3052 15.9186C23.3052 16.1265 23.3571 16.2829 23.5131 16.4389C23.6172 16.5431 23.8252 16.6469 24.0335 16.6469C24.2414 16.6469 24.3978 16.595 24.5538 16.4389L25.5423 15.5546L26.4266 16.4389C26.5308 16.5431 26.7387 16.6469 26.947 16.6469C27.1549 16.6469 27.3113 16.595 27.4674 16.4389C27.5715 16.3348 27.6753 16.1269 27.6753 15.9186C27.6753 15.7107 27.6234 15.5543 27.4151 15.3982L26.5308 14.5658L27.4151 13.7334C27.7272 13.4732 27.7272 12.9532 27.4151 12.693C27.311 12.5889 27.103 12.4851 26.8948 12.4851C26.6868 12.4851 26.5304 12.537 26.3744 12.693L25.4382 13.6296L24.5539 12.7453C24.4497 12.6411 24.2418 12.5374 24.0335 12.5374C23.8256 12.5374 23.6692 12.5893 23.5131 12.7453C23.409 12.8494 23.3052 13.0574 23.3052 13.2657C23.3052 13.4736 23.3571 13.63 23.5654 13.786L24.4497 14.6184L23.5654 15.3982C23.3575 15.5543 23.3052 15.7626 23.3052 15.9186L23.3052 15.9186Z" fill="#101828"/>
</svg>
