<svg width="100" height="100" viewBox="0 0 100 100" fill="none" xmlns="http://www.w3.org/2000/svg">
<circle cx="50" cy="50" r="50" fill="white"/>
<path d="M41.8002 61.8368C41.577 61.8368 41.3549 61.7657 41.1695 61.6246C37.5207 58.8557 35.4275 54.6299 35.4275 50.0308C35.4275 41.9791 41.9777 35.429 50.0294 35.429C58.0811 35.429 64.6312 41.9791 64.6312 50.0308C64.6312 54.63 62.538 58.8565 58.8888 61.6255C58.5487 61.8843 58.0852 61.9081 57.7206 61.6883C57.3548 61.4678 57.1603 61.0478 57.2292 60.6264C57.2965 60.2144 57.3305 59.8081 57.3305 59.418C57.3305 55.3924 54.0555 52.1173 50.0298 52.1173C46.0042 52.1173 42.7291 55.3923 42.7291 59.418C42.7291 59.8069 42.7631 60.214 42.8305 60.6275C42.8986 61.0485 42.7037 61.4688 42.3379 61.6882C42.1714 61.7877 41.9857 61.8373 41.8003 61.8373L41.8002 61.8368ZM50.0293 37.5142C43.1281 37.5142 37.5136 43.1288 37.5136 50.03C37.5136 53.1726 38.6535 56.1118 40.7001 58.376C41.2191 53.6876 45.2051 50.03 50.0293 50.03C54.8533 50.03 58.8392 53.688 59.3586 58.376C61.4053 56.1118 62.5451 53.1726 62.5451 50.03C62.5451 43.1288 56.9305 37.5142 50.0293 37.5142Z" fill="#101828"/>
<path d="M50.0293 64.632C46.7974 64.632 43.7326 63.5909 41.165 61.6214C40.9543 61.4595 40.8132 61.223 40.7704 60.9608C40.6861 60.4373 40.6426 59.9178 40.6426 59.4173C40.6426 54.2416 44.8536 50.0305 50.0293 50.0305C55.2051 50.0305 59.4161 54.2415 59.4161 59.4173C59.4161 59.9193 59.373 60.4395 59.2871 60.9619C59.2443 61.2241 59.1032 61.4602 58.8929 61.6213C56.3256 63.5908 53.261 64.632 50.0293 64.632L50.0293 64.632ZM42.774 60.2171C44.9024 61.7424 47.4015 62.546 50.0297 62.546C52.6571 62.546 55.1567 61.7425 57.2854 60.2171C57.3153 59.9451 57.3308 59.6772 57.3308 59.417C57.3308 55.3913 54.0557 52.1162 50.03 52.1162C46.0044 52.1162 42.7293 55.3912 42.7293 59.417C42.7285 59.6765 42.7437 59.9451 42.7739 60.2171H42.774ZM58.2581 60.7936H58.2683H58.2581Z" fill="#101828"/>
<path d="M50.0322 52.1172C47.157 52.1172 44.8171 49.7777 44.8171 46.9021C44.8171 44.0269 47.1566 41.687 50.0322 41.687C52.9075 41.687 55.2473 44.0265 55.2473 46.9021C55.2473 49.7777 52.9079 52.1172 50.0322 52.1172ZM50.0322 43.7735C48.3068 43.7735 46.9032 45.177 46.9032 46.9026C46.9032 48.6282 48.3067 50.0317 50.0322 50.0317C51.7578 50.0317 53.1613 48.6282 53.1613 46.9026C53.1613 45.177 51.7578 43.7735 50.0322 43.7735Z" fill="#101828"/>
<path d="M30.2151 35.4302C27.3399 35.4302 25 33.0907 25 30.2151C25 27.3399 27.3395 25 30.2151 25C33.0903 25 35.4302 27.3395 35.4302 30.2151C35.4302 33.0906 33.0907 35.4302 30.2151 35.4302ZM30.2151 27.0865C28.49 27.0865 27.0864 28.49 27.0864 30.2152C27.0864 31.9407 28.4899 33.3443 30.2155 33.3443C31.9409 33.3443 33.3446 31.9408 33.3446 30.2152C33.3442 28.4901 31.9407 27.0865 30.2152 27.0865H30.2151Z" fill="#101828"/>
<path d="M69.8494 35.4302C66.9741 35.4302 64.6343 33.0907 64.6343 30.2151C64.6343 27.3399 66.9738 25 69.8494 25C72.7246 25 75.0645 27.3395 75.0645 30.2151C75.0641 33.0906 72.7246 35.4302 69.8494 35.4302ZM69.8494 27.0865C68.1239 27.0865 66.7203 28.49 66.7203 30.2156C66.7203 31.941 68.1238 33.3447 69.8494 33.3447C71.5748 33.3447 72.9785 31.9411 72.9785 30.2156C72.9781 28.4901 71.5745 27.0865 69.8494 27.0865Z" fill="#101828"/>
<path d="M30.2151 75.0635C27.3399 75.0635 25 72.724 25 69.8484C25 66.9732 27.3395 64.6333 30.2151 64.6333C33.0903 64.6333 35.4302 66.9728 35.4302 69.8484C35.4302 72.7239 33.0907 75.0635 30.2151 75.0635ZM30.2151 66.7198C28.4897 66.7198 27.086 68.1233 27.086 69.8489C27.086 71.5743 28.4896 72.978 30.2151 72.978C31.9406 72.978 33.3442 71.5744 33.3442 69.8489C33.3442 68.1234 31.9407 66.7198 30.2151 66.7198Z" fill="#101828"/>
<path d="M69.8494 75.0635C66.9741 75.0635 64.6343 72.724 64.6343 69.8484C64.6343 66.9732 66.9738 64.6333 69.8494 64.6333C72.7246 64.6333 75.0645 66.9728 75.0645 69.8484C75.0641 72.7239 72.7246 75.0635 69.8494 75.0635ZM69.8494 66.7198C68.1239 66.7198 66.7203 68.1233 66.7203 69.8489C66.7203 71.5743 68.1238 72.978 69.8494 72.978C71.5748 72.978 72.9785 71.5744 72.9785 69.8489C72.9781 68.1234 71.5745 66.7198 69.8494 66.7198Z" fill="#101828"/>
<path d="M59.6203 41.488C59.3536 41.488 59.0865 41.3863 58.883 41.1824C58.4755 40.7749 58.4755 40.1148 58.883 39.7076L65.9831 32.6071C66.3906 32.1997 67.0507 32.1997 67.4579 32.6071C67.8653 33.0145 67.8653 33.6747 67.4579 34.0818L60.3577 41.1824C60.1538 41.3859 59.8871 41.488 59.6204 41.488H59.6203Z" fill="#101828"/>
<path d="M40.4422 41.4853C40.1755 41.4853 39.9084 41.3835 39.7049 41.1796L32.6073 34.0821C32.1999 33.6746 32.1999 33.0145 32.6073 32.6073C33.0148 32.1999 33.6749 32.1999 34.0821 32.6073L41.1796 39.7049C41.587 40.1123 41.587 40.7725 41.1796 41.1796C40.9757 41.3831 40.709 41.4853 40.4423 41.4853H40.4422Z" fill="#101828"/>
<path d="M66.7201 67.7634C66.4435 67.7634 66.1681 67.6544 65.9627 67.4373L59.0475 60.1365C58.6514 59.7185 58.6692 59.0583 59.0876 58.6622C59.5064 58.2669 60.1658 58.2839 60.5619 58.7023L67.4771 66.003C67.8732 66.4211 67.8554 67.0812 67.437 67.4774C67.2354 67.6684 66.9777 67.7634 66.7201 67.7634L66.7201 67.7634Z" fill="#101828"/>
<path d="M33.3444 67.763C33.0777 67.763 32.8106 67.6612 32.6071 67.4573C32.1997 67.0499 32.1997 66.3897 32.6071 65.9826L39.7046 58.8854C40.1121 58.478 40.7722 58.478 41.1794 58.8854C41.5868 59.2929 41.5868 59.953 41.1794 60.3601L34.0818 67.4573C33.8783 67.6608 33.6116 67.763 33.3445 67.763H33.3444Z" fill="#101828"/>
</svg>
