<svg width="100" height="100" viewBox="0 0 100 100" fill="none" xmlns="http://www.w3.org/2000/svg">
<circle cx="50" cy="50" r="50" fill="white"/>
<path d="M49.7286 25.0001C43.599 25.0073 37.7228 27.4454 33.3884 31.7795C29.0548 36.1136 26.6162 41.9899 26.609 48.1197V51.6285C25.3546 52.1438 24.2816 53.0206 23.5269 54.1472C22.7716 55.2736 22.3684 56.599 22.3684 57.9556V66.7928C22.3684 68.6069 23.0889 70.3464 24.3718 71.6294C25.6543 72.9119 27.3943 73.6328 29.2084 73.6328H31.5749V73.5779C32.428 74.4563 33.596 74.9577 34.8202 74.9715C36.0441 74.9854 37.2235 74.5102 38.0956 73.6513C38.9682 72.793 39.4625 71.6217 39.4682 70.3973V54.3503C39.4696 53.1183 38.9768 51.937 38.0998 51.072C37.2229 50.2065 36.0349 49.7299 34.8035 49.7479C33.5715 49.7666 32.3984 50.2785 31.5476 51.1693V51.1144L29.3453 51.1149V48.1191C29.3453 42.7129 31.4928 37.5286 35.315 33.7064C39.1377 29.8837 44.3225 27.7362 49.7278 27.7362C55.1331 27.7362 60.3184 29.8837 64.1406 33.7064C67.9628 37.529 70.1103 42.7134 70.1103 48.1191V51.1149H67.894V51.1698V51.1693C67.0423 50.2852 65.8719 49.778 64.6439 49.7622C63.4158 49.746 62.2326 50.2222 61.3576 51.0838C60.483 51.946 59.9897 53.1221 59.9872 54.3501V70.3972C59.9858 71.6291 60.4787 72.8105 61.3556 73.6755C62.2325 74.541 63.4205 75.0176 64.652 74.9995C65.8839 74.9809 67.0571 74.4689 67.9078 73.5776V73.6325H70.2471C72.0611 73.6325 73.8012 72.9116 75.0837 71.6291C76.3666 70.3462 77.087 68.6066 77.087 66.7926V57.9553C77.0861 56.5975 76.681 55.2706 75.9233 54.1441C75.1657 53.0172 74.0897 52.1416 72.8325 51.6282V48.1194C72.8254 41.9923 70.3892 36.118 66.0579 31.7841C61.7266 27.4503 55.8543 25.011 49.7275 25L49.7286 25.0001ZM33.0122 54.3509C33.0122 53.6834 33.3681 53.0669 33.9459 52.7335C34.5237 52.4 35.2351 52.4 35.8128 52.7335C36.3906 53.067 36.7466 53.6834 36.7466 54.3509V70.3979C36.7466 71.065 36.3906 71.6814 35.8128 72.0149C35.235 72.3484 34.5236 72.3484 33.9459 72.0149C33.3682 71.6814 33.0122 71.0649 33.0122 70.3979V54.3509ZM30.2764 70.8902H29.2091C28.1208 70.8902 27.0769 70.4579 26.3073 69.6883C25.5377 68.9187 25.1049 67.8748 25.1049 66.7865V57.956C25.1049 56.8672 25.5377 55.8237 26.3073 55.0541C27.0769 54.284 28.1208 53.8518 29.2091 53.8518H30.3036C30.2946 54.0183 30.2946 54.1848 30.3036 54.3513V70.3983C30.2946 70.5649 30.2946 70.7314 30.3036 70.8974L30.2764 70.8902ZM66.4122 70.3906V70.3911C66.4122 71.0581 66.0563 71.6746 65.4785 72.008C64.9007 72.3415 64.1888 72.3415 63.6111 72.008C63.0333 71.6745 62.6773 71.0581 62.6773 70.3911V54.3514C62.6773 53.6839 63.0333 53.0674 63.6111 52.734C64.1889 52.4005 64.9008 52.4005 65.4785 52.734C66.0563 53.0675 66.4122 53.6839 66.4122 54.3514V70.3906ZM74.3534 57.9566V66.7938C74.3534 67.8821 73.9207 68.926 73.1511 69.6957C72.3815 70.4652 71.3375 70.8975 70.2492 70.8975H69.1547C69.1638 70.7315 69.1638 70.565 69.1547 70.3984V54.3514C69.1638 54.1849 69.1638 54.0184 69.1547 53.8519H70.2492C71.3375 53.8519 72.3815 54.2841 73.1511 55.0542C73.9207 55.8238 74.3534 56.8673 74.3534 57.9561V57.9566Z" fill="#101828"/>
</svg>
