<svg width="100" height="100" viewBox="0 0 100 100" fill="none" xmlns="http://www.w3.org/2000/svg">
<circle cx="50" cy="50" r="50" fill="white"/>
<path d="M63.6528 57.0737H68.5873V58.7186H63.6528V57.0737Z" fill="#101828"/>
<path d="M60.3635 62.0085H68.5877V63.6534H60.3635V62.0085Z" fill="#101828"/>
<path d="M60.3635 66.9426H68.5877V68.5875H60.3635V66.9426Z" fill="#101828"/>
<path d="M41.4057 33.6353C41.3073 33.3423 41.0532 33.1293 40.7478 33.0834L38.3408 32.7159L37.258 30.4073C37.1225 30.1188 36.8325 29.9348 36.5138 29.9348C36.1951 29.9348 35.905 30.1188 35.7696 30.4073L34.6846 32.7174L32.2776 33.0849C31.9729 33.1316 31.7196 33.3445 31.6215 33.6368C31.5239 33.9294 31.5977 34.2517 31.8128 34.4724L33.5796 36.2817L33.161 38.8477C33.11 39.1587 33.2414 39.4712 33.4992 39.6525C33.7565 39.8339 34.095 39.8523 34.3708 39.6999L36.5138 38.5162L38.6569 39.7006C38.9326 39.853 39.2712 39.8347 39.5285 39.6533C39.7863 39.4719 39.9177 39.1595 39.8667 38.8485L39.4481 36.2825L41.2149 34.4731V34.4735C41.4307 34.2521 41.5045 33.9283 41.4058 33.6353L41.4057 33.6353ZM37.9813 35.4299H37.9809C37.7988 35.6164 37.7162 35.8786 37.758 36.1363L37.9702 37.4408L36.911 36.8552C36.6635 36.7186 36.3639 36.7186 36.1165 36.8552L35.0572 37.4408L35.2694 36.1363C35.3113 35.8786 35.2286 35.6164 35.0465 35.4299L34.1081 34.4684L35.3671 34.276C35.6384 34.2345 35.8708 34.0605 35.9872 33.8123L36.5137 32.6929L37.0402 33.8138C37.1566 34.062 37.389 34.236 37.6603 34.2775L38.9193 34.4699L37.9813 35.4299Z" fill="#101828"/>
<path d="M57.9384 33.6353C57.8404 33.9275 57.9142 34.2502 58.1293 34.4709L59.8961 36.2802L59.4775 38.8462C59.4265 39.1568 59.5579 39.4696 59.8157 39.651C60.0731 39.8324 60.4116 39.8507 60.6873 39.698L62.8304 38.5162L64.9734 39.7006C65.2492 39.853 65.5877 39.8347 65.845 39.6533C66.1028 39.4719 66.2342 39.1595 66.1832 38.8485L65.7646 36.2825L67.5314 34.4732V34.4735C67.7465 34.2529 67.8203 33.9301 67.7227 33.6379C67.6246 33.3453 67.3713 33.1323 67.0666 33.0861L64.6596 32.7185L63.5746 30.4073C63.4392 30.1188 63.1491 29.9348 62.8304 29.9348C62.5117 29.9348 62.2217 30.1188 62.0862 30.4073L61.0013 32.7174L58.5943 33.0849C58.2899 33.1316 58.037 33.3438 57.9386 33.6353L57.9384 33.6353ZM61.6838 34.2759C61.9551 34.2345 62.1875 34.0604 62.3039 33.8122L62.8304 32.6928L63.3569 33.8137C63.4733 34.0619 63.7057 34.236 63.977 34.2774L65.236 34.4698L64.2975 35.4314C64.1154 35.6182 64.0328 35.8804 64.0747 36.1377L64.2869 37.4422L63.2276 36.8566C62.9802 36.7204 62.6806 36.7204 62.4331 36.8566L61.3738 37.4422L61.5861 36.1377C61.6279 35.8804 61.5453 35.6182 61.3632 35.4314L60.4248 34.4698L61.6838 34.2759Z" fill="#101828"/>
<path d="M55.3867 29.3305C55.2883 29.0375 55.0342 28.8242 54.7288 28.7787L51.7534 28.3238L50.4166 25.4725C50.2811 25.1839 49.9911 25 49.6724 25C49.3537 25 49.0636 25.1839 48.9282 25.4725L47.5892 28.3238L44.6138 28.7827C44.3091 28.8294 44.0558 29.0423 43.9577 29.3346C43.8601 29.6268 43.9339 29.9495 44.149 30.1702L46.327 32.4013L45.8115 35.5629H45.8111C45.7608 35.8735 45.8919 36.1856 46.1493 36.3669C46.4063 36.5479 46.7444 36.5667 47.0201 36.4147L49.6724 34.9449L52.3248 36.4106C52.6005 36.5626 52.9386 36.5439 53.1956 36.3629C53.453 36.1815 53.5841 35.8691 53.5338 35.5585L53.0179 32.4013L55.1959 30.1702C55.4125 29.9484 55.4863 29.6239 55.3868 29.3305L55.3867 29.3305ZM51.5508 31.5459C51.3687 31.7328 51.2861 31.9949 51.3279 32.2526L51.6378 34.1515L50.0693 33.2854H50.0696C49.8222 33.1492 49.5226 33.1492 49.2751 33.2854L47.7066 34.1515L48.0165 32.2526H48.0169C48.0587 31.9949 47.9761 31.7328 47.794 31.5459L46.4444 30.1628L48.2743 29.8838C48.5453 29.8423 48.778 29.6682 48.8944 29.4201L49.6724 27.7573L50.453 29.4201C50.5694 29.6682 50.8018 29.8423 51.0731 29.8838L52.9003 30.1624L51.5508 31.5459Z" fill="#101828"/>
<path d="M29.1117 74.3447H50.4945C50.5991 74.3451 50.7027 74.3252 50.7996 74.2863L50.8143 74.2797L58.4627 71.2221C59.8512 73.178 62.1004 74.3415 64.4994 74.3447H70.9143C71.7763 74.3642 72.613 74.0521 73.2511 73.4724C73.8896 72.893 74.281 72.0901 74.3445 71.2303C74.4051 70.112 73.8915 69.0398 72.9817 68.3863C72.3197 67.9523 71.9081 67.2251 71.8773 66.4339V58.7428C71.8751 56.7742 71.092 54.8867 69.7001 53.4944C68.3079 52.1025 66.4203 51.3194 64.4517 51.3172H60.3635V49.6724H61.1859C61.5299 49.672 61.8372 49.4576 61.9565 49.1349C62.0755 48.8125 61.9815 48.4498 61.7205 48.2258L50.2067 38.3569C49.899 38.0936 49.4452 38.0936 49.1375 38.3569L45.5601 41.4229V40.6258C45.5601 40.4077 45.4734 40.1985 45.3192 40.0443C45.165 39.8901 44.9558 39.8034 44.7377 39.8034H41.448C40.9939 39.8034 40.6256 40.1717 40.6256 40.6258V45.5603C40.6256 45.5882 40.6388 45.6113 40.6414 45.6385L37.6238 48.2258C37.3628 48.4497 37.2688 48.8125 37.3878 49.1348C37.5071 49.4576 37.8144 49.672 38.1584 49.6724H38.9808V62.0086C38.9808 62.2267 39.0675 62.4359 39.2217 62.5901C39.3759 62.7443 39.5851 62.831 39.8032 62.831H46.3825C46.6006 62.831 46.8099 62.7443 46.9641 62.5901C47.1183 62.4359 47.205 62.2267 47.205 62.0086V57.8965H52.1394V62.0086C52.1394 62.2267 52.2261 62.4359 52.3803 62.5901C52.5345 62.7443 52.7438 62.831 52.9619 62.831H57.0739V66.9192C57.0758 67.5499 57.1587 68.1782 57.3206 68.7876L50.8155 66.1856L50.8008 66.179H50.8004C50.7134 66.1459 50.6209 66.1283 50.5277 66.1272C50.5163 66.1272 50.5071 66.1206 50.4957 66.1206H29.112C27.643 66.1206 26.2853 66.9045 25.551 68.1766C24.8163 69.4488 24.8163 71.0166 25.551 72.2887C26.2853 73.5609 27.643 74.3447 29.112 74.3447L29.1117 74.3447ZM42.2703 41.4481H43.9152V42.8323L42.2703 44.2443V41.4481ZM49.6721 40.0639L58.9654 48.0274H40.3788L49.6721 40.0639ZM57.0738 61.1863H53.7841V57.0743C53.7841 56.8562 53.6975 56.6469 53.5433 56.4927C53.3891 56.3385 53.1798 56.2519 52.9617 56.2519H46.3824C45.9283 56.2519 45.56 56.6201 45.56 57.0743V61.1863H40.6255V49.6726H58.7186V51.3174H58.0361C57.1748 51.299 56.3395 51.6118 55.7021 52.1912C55.0648 52.7709 54.6741 53.5728 54.6106 54.4319C54.55 55.5502 55.0637 56.6224 55.9735 57.2759C56.634 57.7109 57.0438 58.4379 57.0738 59.2283L57.0738 61.1863ZM56.9357 55.9427C56.4794 55.6156 56.2213 55.0781 56.2514 54.5175C56.2984 54.0809 56.508 53.6785 56.8388 53.39C57.17 53.1017 57.5974 52.949 58.0361 52.9622H64.4509C65.9838 52.9637 67.453 53.5732 68.5369 54.657C69.6211 55.7408 70.2306 57.2101 70.2324 58.743V66.434C70.2585 67.7539 70.923 68.9787 72.0153 69.7196C72.4717 70.0468 72.7298 70.5843 72.6997 71.1449C72.6527 71.5814 72.443 71.9838 72.1122 72.2724C71.7811 72.5606 71.3537 72.7134 70.915 72.7001H64.5002C62.9673 72.6987 61.498 72.0892 60.4141 71.0054C59.33 69.9216 58.7204 68.4523 58.7186 66.9194V59.2283C58.6926 57.9084 58.028 56.6837 56.9357 55.9427ZM51.3169 68.1577L56.5047 70.2328L51.3169 72.3079V68.1577ZM33.2238 67.7656H49.6721V69.4104H33.2238V67.7656ZM33.2238 71.0552H49.6721V72.7001H33.2238V71.0552ZM29.1117 67.7656H31.579V72.7001H29.1117C28.2302 72.7001 27.4159 72.2297 26.975 71.4664C26.5344 70.7031 26.5344 69.7625 26.975 68.9992C27.4159 68.2359 28.2302 67.7656 29.1117 67.7656Z" fill="#101828"/>
</svg>
