<svg width="100" height="100" viewBox="0 0 100 100" fill="none" xmlns="http://www.w3.org/2000/svg">
<circle cx="50" cy="50" r="50" fill="white"/>
<path d="M55.3186 48.4016C55.9581 47.6982 55.8939 46.6751 55.2548 46.036C54.5514 45.3964 53.5283 45.4606 52.8892 46.0998L48.9889 50.2555L47.2625 48.4015C46.6229 47.6982 45.6002 47.6982 44.8968 48.3378C44.1935 48.9773 44.1935 50.0001 44.8331 50.7034L47.7745 53.9003C48.0943 54.2201 48.5416 54.4119 48.9894 54.4119C49.4372 54.4119 49.8845 54.2201 50.2044 53.9003L55.3186 48.4016Z" fill="#101828"/>
<path d="M79.9351 48.018C79.2955 47.3784 78.2086 47.3784 77.5695 48.018L75.0122 50.5753L75.0117 50C75.0117 36.2532 63.8225 25 50.0118 25C42.0833 25 34.5386 28.8365 29.8072 35.2941C29.2318 36.0612 29.4236 37.0844 30.1907 37.6597C30.9579 38.2351 31.981 38.0433 32.5564 37.2762C36.6489 31.7136 43.1707 28.3887 50.0767 28.3887C62.0332 28.3887 71.6879 38.1075 71.6879 49.9999V50.5115L69.1306 47.9542C68.491 47.3146 67.4041 47.3146 66.765 47.9542C66.1254 48.5937 66.1254 49.6806 66.765 50.3198L72.1357 55.6905C72.4555 56.0103 72.9028 56.2021 73.3506 56.2021C73.7984 56.2021 74.182 56.0103 74.5656 55.6905L79.9363 50.3198C80.6392 49.6802 80.6392 48.6572 79.9358 48.018H79.9351Z" fill="#101828"/>
<path d="M67.5308 62.724C63.503 68.2865 56.9811 71.6114 50.0756 71.6114C38.1191 71.6114 28.4643 61.8927 28.4643 50.0002V49.4886L31.0216 52.0459C31.3414 52.3657 31.7888 52.5575 32.2366 52.5575C32.6844 52.5575 33.0679 52.3657 33.4515 52.0459C34.0911 51.4064 34.0911 50.3195 33.4515 49.6803L27.9528 44.2458C27.3133 43.6062 26.2264 43.6062 25.5872 44.2458L20.2165 49.6165C19.5769 50.2561 19.5769 51.343 20.2165 51.9821C20.8561 52.6217 21.9429 52.6217 22.5821 51.9821L25.1394 49.4248L25.1399 50.0002C25.1399 63.7469 36.3291 75.0001 50.1398 75.0001C58.0683 75.0001 65.6129 71.1636 70.3444 64.706C70.9197 63.9389 70.728 62.9157 69.9608 62.3404C69.129 61.8288 68.1064 61.9564 67.5306 62.724H67.5308Z" fill="#101828"/>
<path d="M62.9274 50.0003C62.9274 42.9031 57.1732 37.1487 50.0758 37.1487C42.9784 37.1487 37.2241 42.9029 37.2241 50.0003C37.2241 57.0977 42.9784 62.852 50.0758 62.852C57.1732 62.852 62.9274 57.0977 62.9274 50.0003ZM40.5489 50.0003C40.5489 44.7571 44.8328 40.4734 50.0759 40.4734C55.319 40.4734 59.6028 44.7573 59.6028 50.0003C59.6028 55.2434 55.319 59.5273 50.0759 59.5273C44.8328 59.5273 40.5489 55.2434 40.5489 50.0003Z" fill="#101828"/>
</svg>
