<svg width="46" height="46" viewBox="0 0 46 46" fill="none" xmlns="http://www.w3.org/2000/svg">
<circle cx="23" cy="23" r="23" fill="#CEE5D9"/>
<path d="M21.2773 29.7404H13.9056C13.8549 29.7404 13.8057 29.7204 13.7696 29.6843C13.7335 29.6481 13.7135 29.5989 13.7135 29.5482L13.7142 17.5288H13.0008L13 30.409H21.1314C21.4373 30.409 21.7294 30.555 21.9124 30.7995C22.0238 30.9479 22.2007 31.0363 22.3867 31.0363H22.7534C22.6588 30.3059 22.033 29.7401 21.2774 29.7401L21.2773 29.7404Z" fill="#006D77"/>
<path d="M20.6211 29.1287L15.3616 27.8527C15.2754 27.832 15.2147 27.755 15.2147 27.6667L15.2155 16.7004L14.0986 16.7006V17.3425L14.0979 29.3566H21.2675C21.0769 29.2728 20.8623 29.196 20.621 29.129L20.6211 29.1287Z" fill="#006D77"/>
<path d="M21.1349 16.3337C19.855 15.967 16.5142 15.2067 15.5997 15L15.5989 27.5153L20.7176 28.7567C21.8315 29.0665 22.4371 29.5692 22.7654 30.0419L22.7663 18.0762C22.747 17.1431 21.7553 16.5119 21.135 16.3336L21.1349 16.3337Z" fill="#006D77"/>
<path d="M32.2054 17.5291L32.2046 29.5485C32.2046 29.6546 32.1184 29.7406 32.0124 29.7406H24.6408C23.8851 29.7406 23.2594 30.3064 23.1648 31.0367H23.5315C23.7167 31.0367 23.8936 30.9483 24.005 30.7999C24.1886 30.5555 24.4808 30.4094 24.786 30.4094H32.9181L32.9189 17.5292L32.2054 17.5291Z" fill="#006D77"/>
<path d="M24.6475 29.3562H31.8203L31.821 16.7004H30.704L30.7033 27.6667C30.7033 27.755 30.6426 27.8319 30.5565 27.8527L25.2909 29.1303C25.0504 29.1971 24.8374 29.2732 24.6476 29.3562L24.6475 29.3562Z" fill="#006D77"/>
<path d="M25.1938 28.7585L30.319 27.5155L30.3197 15.0002C29.4049 15.207 26.0642 15.9673 24.7844 16.3339C24.1641 16.5123 23.1725 17.1434 23.1533 18.0804L23.1526 30.0405C23.4801 29.5685 24.0842 29.0665 25.1942 28.7583L25.1938 28.7585Z" fill="#006D77"/>
</svg>
