  
<svg width="19" height="16" viewBox="0 0 19 16" fill="none" xmlns="http://www.w3.org/2000/svg">
<path d="M0.000488281 11.769C0.000488281 12.2986 0.431482 12.7295 0.960972 12.7295H6.7544H6.75503H17.5724C18.1021 12.7295 18.533 12.2985 18.533 11.769V10.9084H0.000593966L0.000488281 11.769Z" fill="#006D77"/>
<path d="M17.572 0H0.960484C0.430873 0 0 0.430672 0 0.960323V10.3799H18.5324L18.5325 0.960323C18.5327 0.430712 18.1017 0 17.5719 0H17.572Z" fill="#006D77"/>
<path d="M15.7733 15.4717H12.0938L11.5763 13.2583H6.95705L6.43924 15.4717H5.89642L2.75987 15.4715C2.61389 15.4715 2.49561 15.5898 2.49561 15.7358C2.49561 15.8817 2.61389 16 2.75987 16H6.10545H6.10608H6.10656H12.4263H12.4268H12.4274H15.773C15.919 16 16.0372 15.8817 16.0372 15.7358C16.0374 15.5898 15.9193 15.4717 15.7733 15.4717H15.7733Z" fill="#006D77"/>
</svg>

