<svg width="43" height="43" viewBox="0 0 43 43" fill="none" xmlns="http://www.w3.org/2000/svg">
<circle cx="21.5" cy="21.5" r="21.5" fill="#101828"/>
<path d="M27.2247 15.7338C27.2247 12.7889 24.8152 10.3794 21.8703 10.3794C18.9254 10.3794 16.5159 12.7889 16.5159 15.7338C16.5159 18.6787 18.9254 21.0882 21.8703 21.0882C24.8152 21.0882 27.2247 18.6787 27.2247 15.7338ZM17.7515 15.7338L20.3258 14.2304C20.7376 13.9833 21.2525 14.2922 21.2525 14.7659V15.7337C21.2525 16.0838 21.5202 16.3516 21.8703 16.3516H25.9273C25.639 18.3286 23.9297 19.8525 21.8703 19.8525C19.605 19.8525 17.7515 17.9991 17.7515 15.7337L17.7515 15.7338Z" fill="white"/>
<path d="M32.2909 26.5869C32.1261 26.2985 31.7349 26.1956 31.4465 26.3603C31.1582 26.5251 31.0552 26.9163 31.22 27.2047L33.4441 31.0352C33.5471 31.1999 33.6089 31.3853 33.6089 31.5912C33.6089 32.1678 33.1558 32.6209 32.5792 32.6209H29.5519L30.2109 24.7335C30.2521 24.2187 30.0873 23.7038 29.7373 23.3331C29.3872 22.9625 28.8723 22.7359 28.3575 22.7359H15.2189C14.704 22.7359 14.1892 22.9624 13.8391 23.3537C13.489 23.745 13.3242 24.2598 13.3655 24.7953L14.1892 32.6417H11.1619C10.5853 32.6417 10.1322 32.1886 10.1322 31.612C10.1322 31.4266 10.194 31.2413 10.2764 31.0765C10.297 31.0559 12.5212 27.2255 12.5212 27.2255C12.6859 26.9372 12.5829 26.5459 12.2946 26.3811C12.0063 26.2164 11.615 26.3194 11.4502 26.6077L9.2673 30.3558C9.02017 30.7264 8.89661 31.1589 8.89661 31.5914C8.89661 32.8476 9.90573 33.8567 11.1619 33.8567H14.8688H14.9306H20.6145H20.6351H32.5796C33.8358 33.8567 34.8449 32.8476 34.8449 31.5914C34.8449 31.1589 34.7213 30.7264 34.4742 30.3558L32.2912 26.5871L32.2909 26.5869ZM21.6645 29.3259C20.9848 29.3259 20.4288 28.7699 20.4288 28.0902C20.4288 27.4106 20.9848 26.8546 21.6645 26.8546C22.3441 26.8546 22.9001 27.4106 22.9001 28.0902C22.9001 28.7699 22.3441 29.3259 21.6645 29.3259Z" fill="white"/>
</svg>
