<svg width="70" height="70" viewBox="0 0 70 70" fill="none" xmlns="http://www.w3.org/2000/svg">
<circle cx="35" cy="35" r="35" fill="#BEE1E6"/>
<path d="M43.8277 31.984C43.1245 30.9925 42.259 30.1268 41.2674 29.4237C41.1078 29.31 40.8988 29.2914 40.7216 29.3753L38.9576 30.2096C38.6106 30.0398 38.2531 29.8916 37.888 29.7661L37.2315 27.7878V27.7876C37.158 27.5661 36.9508 27.4166 36.7174 27.4166H33.2831C33.0498 27.4166 32.8426 27.5661 32.769 27.7878L32.1048 29.7898L31.066 30.2205L29.279 29.3754C29.1022 29.2922 28.8942 29.3103 28.7346 29.4228C27.7432 30.1257 26.8773 30.9912 26.1738 31.9824C26.0602 32.1425 26.0416 32.3512 26.1252 32.5287L26.9706 34.3157L26.5399 35.3545L24.5384 36.0185V36.0188C24.3167 36.0923 24.167 36.2995 24.167 36.5329V39.9672C24.167 40.2005 24.3167 40.4078 24.5384 40.4813L26.5399 41.1453L26.9706 42.1841L26.1252 43.9714C26.0418 44.1482 26.0599 44.3564 26.1729 44.516C26.876 45.5074 27.7415 46.3731 28.7332 47.0763C28.8954 47.1921 29.1087 47.209 29.2874 47.1203L30.9071 46.3187L30.4269 45.348L29.1029 46.0031C28.4011 45.4704 27.7753 44.8448 27.2423 44.1433L28.0527 42.4305C28.118 42.2922 28.1218 42.1328 28.0633 41.9914L27.446 40.5018C27.3858 40.3565 27.2653 40.2445 27.1159 40.195L25.2503 39.5762V36.9239L27.1159 36.3051C27.2653 36.2555 27.3858 36.1436 27.446 35.9982L28.0633 34.5087C28.1218 34.3672 28.118 34.2079 28.0527 34.0695L27.2428 32.3578C27.7765 31.6541 28.4038 31.0266 29.107 30.4924L30.8198 31.3025C30.9581 31.3682 31.1177 31.3721 31.2589 31.3133L32.7485 30.6957C32.8935 30.6355 33.0055 30.5151 33.0553 30.3659L33.6741 28.5H36.3264L36.9452 30.3659C37.0003 30.5313 37.1314 30.6602 37.2975 30.7124C37.7804 30.8626 38.2483 31.0565 38.6957 31.2921C38.8466 31.3719 39.0265 31.3757 39.1808 31.3025L40.8926 30.4929C41.5962 31.0266 42.224 31.6536 42.7582 32.3568L41.9478 34.0696C41.8748 34.2238 41.8789 34.4035 41.959 34.5544C42.194 35.0017 42.3879 35.4697 42.5381 35.9523C42.5901 36.1189 42.719 36.25 42.8846 36.3049L44.7503 36.9239V39.5762L42.8846 40.195C42.719 40.2499 42.5901 40.3812 42.5381 40.5476C42.3879 41.0302 42.194 41.4984 41.959 41.9457C41.8789 42.0964 41.8748 42.2763 41.9478 42.4306L42.7577 44.1424V44.1421C42.2252 44.8441 41.5999 45.4704 40.8989 46.0036L39.5737 45.348L39.0935 46.3187L40.7132 47.1203C40.8914 47.2086 41.1037 47.1921 41.266 47.0773C42.2574 46.3743 43.1233 45.5088 43.8268 44.5176C43.9404 44.3575 43.959 44.1489 43.8754 43.9714L43.0411 42.2076C43.2108 41.8603 43.3588 41.5029 43.4843 41.1375L45.4621 40.4812C45.6839 40.4077 45.8336 40.2005 45.8336 39.9671V36.5328C45.8336 36.2995 45.6839 36.0923 45.4621 36.0187L43.4843 35.3624V35.3627C43.3588 34.997 43.2108 34.6396 43.0411 34.2924L43.8754 32.5286C43.9588 32.3518 43.9407 32.1436 43.8277 31.984L43.8277 31.984Z" fill="#006D77"/>
<path d="M32.2917 49.0833V50.7083C32.2917 50.8519 32.3488 50.9898 32.4504 51.0913C32.5519 51.1929 32.6898 51.25 32.8334 51.25H37.1667C37.3104 51.25 37.4482 51.1929 37.5498 51.0913C37.6513 50.9898 37.7084 50.8519 37.7084 50.7083V49.0833C37.852 49.0833 37.9899 49.0262 38.0914 48.9247C38.193 48.8231 38.2501 48.6853 38.2501 48.5416V47.7316C38.289 45.6909 38.9839 43.7169 40.2322 42.1021C41.059 40.9883 41.5037 39.6373 41.5001 38.2499C41.502 36.1468 40.4866 34.1729 38.7746 32.9515C37.0628 31.7303 34.8656 31.4126 32.8777 32.0989C30.89 32.7854 29.3568 34.3908 28.7632 36.4082C28.1695 38.4257 28.5883 40.6059 29.8876 42.2595C31.1291 43.9072 31.7847 45.9225 31.7501 47.9854V48.5416C31.7501 48.6852 31.8071 48.8231 31.9087 48.9246C32.0102 49.0262 32.1481 49.0833 32.2917 49.0833V49.0833ZM36.6251 50.1666H33.3751V49.0833H36.6251V50.1666ZM30.7393 41.5897C29.803 40.4027 29.4081 38.8771 29.6506 37.3848C29.8448 36.2228 30.4099 35.1552 31.2614 34.3411C32.1128 33.5271 33.2049 33.0104 34.3743 32.8684C35.7794 32.7045 37.1928 33.0969 38.3125 33.9619C39.4318 34.8266 40.1684 36.0954 40.3645 37.4963C40.5606 38.8974 40.2005 40.3195 39.3614 41.4584C37.9744 43.2592 37.2049 45.459 37.1667 47.7319V48.0003H35.5417V43.6123C36.4265 43.4316 37.1629 42.822 37.5058 41.9865C37.8484 41.1513 37.7524 40.2 37.2495 39.4501C36.7465 38.7003 35.903 38.2502 35.0001 38.2502C34.0971 38.2502 33.2537 38.7002 32.7507 39.4501C32.2477 40.2 32.1517 41.1513 32.4944 41.9865C32.8373 42.822 33.5736 43.4316 34.4584 43.6123V48.0003H32.8334V47.9858C32.8675 45.6798 32.1305 43.4288 30.7393 41.5898L30.7393 41.5897ZM35.0001 42.5836C34.5691 42.5836 34.1556 42.4124 33.851 42.1077C33.5463 41.803 33.3751 41.3895 33.3751 40.9586C33.3751 40.5278 33.5463 40.1142 33.851 39.8096C34.1557 39.5049 34.5692 39.3337 35.0001 39.3337C35.4309 39.3337 35.8445 39.5049 36.1491 39.8096C36.4538 40.1143 36.625 40.5278 36.625 40.9586C36.6245 41.3896 36.4531 41.8026 36.1486 42.1073C35.844 42.4117 35.4309 42.5832 35 42.5837L35.0001 42.5836Z" fill="#006D77"/>
<path d="M30.6667 20.403V23.0553C30.6672 23.4935 30.8416 23.9137 31.1516 24.2235C31.4613 24.5335 31.8816 24.7079 32.3198 24.7083H33.6268L34.5493 26.0922C34.6499 26.2429 34.8189 26.3333 35 26.3333C35.1811 26.3333 35.3502 26.2429 35.4507 26.0922L36.3733 24.7083H37.6802C38.1184 24.7078 38.5387 24.5335 38.8485 24.2235C39.1585 23.9137 39.3328 23.4935 39.3333 23.0553V20.403C39.3328 19.9649 39.1585 19.5446 38.8485 19.2348C38.5387 18.9248 38.1184 18.7505 37.6802 18.75H32.3197C31.8815 18.7505 31.4612 18.9248 31.1515 19.2348C30.8415 19.5446 30.6671 19.9649 30.6666 20.403H30.6667ZM31.7501 20.403C31.7503 20.0884 32.0052 19.8336 32.3198 19.8333H37.6804C37.995 19.8336 38.2498 20.0884 38.2501 20.403V23.0553C38.2498 23.3699 37.995 23.6248 37.6804 23.625H36.0834C35.9023 23.625 35.7333 23.7154 35.6327 23.8661L35.0001 24.8152L34.3674 23.8663V23.8661C34.2669 23.7154 34.0978 23.625 33.9167 23.625H32.3197C32.0051 23.6248 31.7503 23.3699 31.75 23.0553L31.7501 20.403Z" fill="#006D77"/>
<path d="M46.375 18.75C45.082 18.75 43.842 19.2636 42.9279 20.1779C42.0136 21.092 41.5 22.332 41.5 23.625C41.5 24.918 42.0136 26.158 42.9279 27.0721C43.842 27.9864 45.082 28.5 46.375 28.5C47.668 28.5 48.908 27.9864 49.8221 27.0721C50.7364 26.158 51.25 24.918 51.25 23.625C51.2485 22.3325 50.7344 21.0934 49.8206 20.1794C48.9065 19.2655 47.6675 18.7515 46.375 18.75ZM46.375 27.4167C45.3693 27.4167 44.4049 27.0172 43.694 26.306C42.9828 25.5951 42.5833 24.6308 42.5833 23.625C42.5833 22.6192 42.9828 21.6549 43.694 20.944C44.4049 20.2328 45.3692 19.8333 46.375 19.8333C47.3808 19.8333 48.3451 20.2328 49.056 20.944C49.7672 21.6549 50.1667 22.6192 50.1667 23.625C50.1655 24.6302 49.7657 25.5941 49.0548 26.3048C48.3441 27.0157 47.3802 27.4154 46.375 27.4167Z" fill="#006D77"/>
<path d="M23.625 28.5C24.918 28.5 26.158 27.9864 27.0721 27.0721C27.9864 26.158 28.5 24.918 28.5 23.625C28.5 22.332 27.9864 21.092 27.0721 20.1779C26.158 19.2636 24.918 18.75 23.625 18.75C22.332 18.75 21.092 19.2636 20.1779 20.1779C19.2636 21.092 18.75 22.332 18.75 23.625C18.7515 24.9175 19.2655 26.1566 20.1794 27.0706C21.0935 27.9845 22.3325 28.4985 23.625 28.5ZM23.625 19.8333C24.6307 19.8333 25.5951 20.2328 26.306 20.944C27.0172 21.6549 27.4167 22.6192 27.4167 23.625C27.4167 24.6308 27.0172 25.5951 26.306 26.306C25.5951 27.0172 24.6308 27.4167 23.625 27.4167C22.6192 27.4167 21.6549 27.0172 20.944 26.306C20.2328 25.5951 19.8333 24.6308 19.8333 23.625C19.8345 22.6198 20.2343 21.6559 20.9452 20.9452C21.6559 20.2343 22.6198 19.8346 23.625 19.8333Z" fill="#006D77"/>
<path d="M46.375 23.0834C46.0759 23.0834 45.8333 22.8408 45.8333 22.5417C45.8333 22.2426 46.0759 22 46.375 22H47.4583V20.9167H46.375C45.7944 20.9167 45.258 21.2265 44.9676 21.7292C44.6775 22.2319 44.6775 22.8515 44.9676 23.3542C45.2581 23.8569 45.7944 24.1667 46.375 24.1667C46.6741 24.1667 46.9166 24.4092 46.9166 24.7084C46.9166 25.0075 46.6741 25.25 46.375 25.25H45.2916V26.3334H46.375C46.9556 26.3334 47.4919 26.0236 47.7823 25.5209C48.0725 25.0181 48.0725 24.3986 47.7823 23.8959C47.4919 23.3931 46.9556 23.0834 46.375 23.0834Z" fill="#006D77"/>
<path d="M32.8334 20.9167H35V22H32.8334V20.9167Z" fill="#006D77"/>
<path d="M36.0834 20.9167H37.1667V22H36.0834V20.9167Z" fill="#006D77"/>
<path d="M21.4584 23.625H22.5417V25.25H21.4584V23.625Z" fill="#006D77"/>
<path d="M23.0833 22.5417H24.1666V25.25H23.0833V22.5417Z" fill="#006D77"/>
<path d="M24.7084 21.4583H25.7917V25.25H24.7084V21.4583Z" fill="#006D77"/>
<path d="M49.0834 29.0417H50.1667V30.125H49.0834V29.0417Z" fill="#006D77"/>
<path d="M49.0834 31.2083H50.1667V32.2916H49.0834V31.2083Z" fill="#006D77"/>
<path d="M49.0834 33.375H50.1667V34.4583H49.0834V33.375Z" fill="#006D77"/>
<path d="M49.0834 35.5417H50.1667V36.625H49.0834V35.5417Z" fill="#006D77"/>
<path d="M49.0834 37.7083H50.1667V38.7916H49.0834V37.7083Z" fill="#006D77"/>
<path d="M46.9167 37.7083H48.0001V38.7916H46.9167V37.7083Z" fill="#006D77"/>
<path d="M19.8334 29.0417H20.9167V30.125H19.8334V29.0417Z" fill="#006D77"/>
<path d="M19.8334 31.2083H20.9167V32.2916H19.8334V31.2083Z" fill="#006D77"/>
<path d="M19.8334 33.375H20.9167V34.4583H19.8334V33.375Z" fill="#006D77"/>
<path d="M19.8334 35.5417H20.9167V36.625H19.8334V35.5417Z" fill="#006D77"/>
<path d="M19.8334 37.7083H20.9167V38.7916H19.8334V37.7083Z" fill="#006D77"/>
<path d="M22 37.7083H23.0833V38.7916H22V37.7083Z" fill="#006D77"/>
<path d="M34.4583 40.4167H35.5416V41.5H34.4583V40.4167Z" fill="#006D77"/>
</svg>
